# xmcd
#
# Track frame offsets: 
#        150
#        14700
#        28200
#        50700
#        75587
#        87200
#        117762
#        134537
#        147875
#        171137
#        192537
#        215987
#        229187
#
# Disc length: 3339 seconds
#
# Revision: 2
# Processed by: cddbd v1.5.2PL0 Copyright (c) Steve Scherf et al.
# Submitted via: ExactAudioCopy v0.99pb5
#
DISCID=c20d090d
DTITLE=Clarence 'Gatemouth' Brown - American Music, Texas Style
DYEAR=1999
DGENRE=Blues
TTITLE0=Rock My Blues Away
TTITLE1=Half Steppin'
TTITLE2=Hootie Blues
TTITLE3=Front Burner
TTITLE4=I'm Beginning To See The Light
TTITLE5=Swamp Ghost
TTITLE6=Without Me Baby
TTITLE7=Gate Swings Again
TTITLE8=Strange Things Happen
TTITLE9=Don't Get Around Much Anymore
TTITLE10=Guitar In My Hand
TTITLE11=Jumpin' The Blues
TTITLE12=Things Ain't What They Used To Be
EXTD=
EXTT0=
EXTT1=
EXTT2=
EXTT3=
EXTT4=
EXTT5=
EXTT6=
EXTT7=
EXTT8=
EXTT9=
EXTT10=
EXTT11=
EXTT12=
PLAYORDER=
